<?xml version="1.0" encoding="UTF-8" standalone="no"?>
<!DOCTYPE svg PUBLIC "-//W3C//DTD SVG 1.1//EN" "http://www.w3.org/Graphics/SVG/1.1/DTD/svg11.dtd">
<svg width="100%" height="100%" viewBox="0 0 1280 1024" version="1.1" xmlns="http://www.w3.org/2000/svg" xmlns:xlink="http://www.w3.org/1999/xlink" xml:space="preserve" xmlns:serif="http://www.serif.com/" style="fill-rule:evenodd;clip-rule:evenodd;stroke-linejoin:round;stroke-miterlimit:2;">
    <rect id="envy-brand" x="0" y="0" width="1280" height="1024" style="fill:none;"/>
    <g id="envy-brand1" serif:id="envy-brand">
        <g transform="matrix(1,0,0,1,-100.801,-47.1953)">
            <path d="M729.479,160.489L771.177,288.821L906.114,288.821L796.948,368.135L838.645,496.467L729.479,417.153L620.313,496.467L662.011,368.135L552.845,288.821L687.782,288.821L729.479,160.489Z" style="fill:rgb(255,168,106);"/>
        </g>
        <g transform="matrix(1.16719,0,0,2.23885,-111.384,-592.888)">
            <rect x="288.093" y="501.205" width="691.918" height="12.288" style="fill:rgb(255,168,106);"/>
        </g>
        <g transform="matrix(2.16705,0,0,2.17994,-71.1098,-800.266)">
            <path d="M191.927,686.521L151.759,686.521L151.759,710.454L190.759,710.454L190.759,724.581L151.759,724.581L151.759,757.868L191.927,757.868L191.927,771.995L136.639,771.995L136.639,672.394L191.927,672.394L191.927,686.521Z" style="fill:rgb(255,168,106);fill-rule:nonzero;"/>
            <path d="M221.087,771.995L221.087,665.62L294.156,741.611L294.156,672.394L309.276,672.394L309.276,778.059L236.207,702.261L236.207,771.995L221.087,771.995Z" style="fill:rgb(255,168,106);fill-rule:nonzero;"/>
            <path d="M347.65,672.394L375.359,741.418L403.458,672.394L420.005,672.394L375.035,779.478L331.103,672.394L347.65,672.394Z" style="fill:rgb(255,168,106);fill-rule:nonzero;"/>
            <path d="M462.014,728.968L429.308,672.394L446.699,672.394L469.606,712.195L492.578,672.394L509.97,672.394L477.134,728.968L477.134,771.995L462.014,771.995L462.014,728.968Z" style="fill:rgb(255,168,106);fill-rule:nonzero;"/>
        </g>
    </g>
</svg>
